<?xml version="1.0" standalone="no"?>
<!DOCTYPE svg PUBLIC "-//W3C//DTD SVG 20010904//EN"
 "http://www.w3.org/TR/2001/REC-SVG-20010904/DTD/svg10.dtd">
<svg version="1.0" xmlns="http://www.w3.org/2000/svg"
 width="470.000000pt" height="490.000000pt" viewBox="0 0 470.000000 490.000000"
 preserveAspectRatio="xMidYMid meet">

<g transform="translate(0.000000,490.000000) scale(0.100000,-0.100000)"
fill="#000000" stroke="none">
<path d="M948 4809 c-119 -126 -115 -118 -94 -247 9 -59 20 -116 23 -127 3
-11 -17 5 -48 38 -41 43 -62 57 -83 57 -32 0 -86 -48 -86 -77 0 -10 -19 11
-45 49 -58 86 -208 244 -256 269 -52 26 -82 24 -120 -8 -93 -78 -179 -466
-179 -806 0 -89 -3 -103 -30 -157 l-30 -59 0 -306 c0 -237 3 -305 13 -305 6 0
25 -25 41 -55 47 -91 133 -184 231 -251 l90 -60 -60 -61 c-33 -33 -68 -74 -78
-91 l-18 -32 850 0 c468 0 851 3 851 6 0 19 -48 80 -100 127 l-60 54 68 44
c94 61 200 171 241 249 19 36 35 67 37 69 2 2 32 -7 68 -19 71 -25 99 -22 94
12 -2 16 -18 27 -60 42 -31 12 -59 24 -62 27 -4 3 0 35 7 70 l13 64 59 3 c90
3 105 9 105 36 0 28 -21 36 -96 36 l-51 0 -6 90 c-9 119 -32 220 -71 305 -32
68 -33 77 -39 240 -10 260 -49 480 -113 641 -27 65 -71 114 -104 114 -77 0
-225 -132 -335 -299 -26 -39 -30 -42 -40 -25 -23 40 -55 64 -86 64 -25 0 -41
-11 -78 -51 l-48 -52 19 112 c11 62 17 122 14 134 -6 27 -143 182 -183 208
-52 35 -71 27 -165 -72z m211 -89 l63 -71 -17 -92 c-9 -51 -21 -116 -26 -144
l-10 -53 -99 0 -98 0 -6 28 c-3 15 -15 83 -27 150 l-22 124 73 73 c56 57 77
72 90 65 8 -4 44 -40 79 -80z m679 -267 c11 -38 25 -93 32 -123 13 -67 26
-330 15 -330 -4 0 -24 13 -44 29 -20 16 -60 41 -89 56 -40 21 -51 32 -46 44 4
9 7 25 8 36 1 18 -5 20 -50 20 -51 -1 -52 -1 -42 25 33 86 171 310 192 310 2
0 13 -30 24 -67z m-1491 35 c34 -38 113 -165 144 -234 16 -35 29 -65 29 -66 0
-2 -22 -1 -50 0 -46 4 -50 2 -50 -18 0 -12 4 -30 10 -40 9 -16 3 -22 -44 -43
-29 -14 -71 -41 -93 -61 l-40 -36 -6 53 c-8 66 8 255 28 327 8 30 20 74 26 98
6 23 15 42 18 42 4 0 17 -10 28 -22z m464 -110 c30 -40 55 -76 57 -80 2 -4
-11 -44 -28 -89 -26 -69 -30 -86 -21 -112 6 -16 11 -34 11 -39 0 -5 -30 -8
-67 -6 l-68 3 0 65 0 65 45 5 c54 6 54 12 4 112 -19 37 -34 74 -34 82 0 28 20
66 34 66 7 0 38 -33 67 -72z m609 53 c17 -32 12 -53 -30 -140 -22 -45 -40 -86
-40 -91 0 -5 21 -10 48 -12 l47 -3 3 -59 c4 -71 -2 -76 -80 -76 l-57 0 6 48
c4 39 0 61 -26 121 l-31 73 61 79 c62 81 81 93 99 60z m-246 -134 c10 -5 36
-47 57 -93 l39 -85 -19 -37 c-11 -20 -37 -59 -58 -87 l-39 -50 -86 -3 -86 -3
-56 83 c-31 46 -56 90 -56 99 0 23 76 176 92 183 20 8 191 3 212 -7z m-607
-749 c-8 -54 10 -105 45 -131 26 -19 28 -19 53 -3 37 24 59 80 51 133 l-6 43
70 0 70 0 0 -42 c0 -48 -30 -121 -63 -156 -32 -34 -91 -62 -146 -69 -128 -15
-242 80 -258 217 l-6 50 98 0 97 0 -5 -42z m855 -9 c-8 -116 77 -178 129 -95
15 23 19 45 17 89 l-3 57 98 0 c112 0 111 1 82 -98 -39 -130 -182 -203 -308
-158 -88 32 -142 104 -154 205 l-6 52 74 -3 73 -3 -2 -46z m-292 -203 c0 -32
-37 -76 -63 -76 -24 0 -67 54 -67 83 0 14 11 17 65 17 62 0 65 -1 65 -24z"/>
<path d="M1048 4232 c-15 -2 -41 -16 -58 -32 -23 -22 -30 -37 -30 -67 0 -121
168 -150 211 -35 26 69 -42 145 -123 134z m54 -69 c22 -20 23 -41 1 -65 -33
-37 -83 -17 -83 34 0 44 48 62 82 31z"/>
<path d="M2380 2745 l0 -165 35 0 35 0 0 165 0 165 -35 0 -35 0 0 -165z"/>
<path d="M0 2705 l0 -125 95 0 96 0 -27 48 c-75 130 -131 202 -155 202 -5 0
-9 -56 -9 -125z"/>
</g>
</svg>
